<svg width="137" height="102" viewBox="0 0 137 102" fill="none" xmlns="http://www.w3.org/2000/svg">
<path d="M12.7295 76.4544V79.0986H8.37708V92.7876H5.10108V79.0986H0.748678V76.4544H12.7295ZM27.1708 86.025C27.1708 86.493 27.1396 86.9142 27.0772 87.2886H17.6002C17.6782 88.2246 18.0058 88.9578 18.583 89.4882C19.1602 90.0186 19.87 90.2838 20.7124 90.2838C21.9292 90.2838 22.795 89.7612 23.3098 88.716H26.8432C26.4688 89.964 25.7512 90.9936 24.6904 91.8048C23.6296 92.6004 22.327 92.9982 20.7826 92.9982C19.5346 92.9982 18.4114 92.7252 17.413 92.1792C16.4302 91.6176 15.658 90.8298 15.0964 89.8158C14.5504 88.8018 14.2774 87.6318 14.2774 86.3058C14.2774 84.9642 14.5504 83.7864 15.0964 82.7724C15.6424 81.7584 16.4068 80.9784 17.3896 80.4324C18.3724 79.8864 19.5034 79.6134 20.7826 79.6134C22.015 79.6134 23.1148 79.8786 24.082 80.409C25.0648 80.9394 25.8214 81.696 26.3518 82.6788C26.8978 83.646 27.1708 84.7614 27.1708 86.025ZM23.7778 85.089C23.7622 84.2466 23.458 83.5758 22.8652 83.0766C22.2724 82.5618 21.547 82.3044 20.689 82.3044C19.8778 82.3044 19.1914 82.554 18.6298 83.0532C18.0838 83.5368 17.7484 84.2154 17.6236 85.089H23.7778ZM45.6611 79.6368C47.2523 79.6368 48.5315 80.1282 49.4987 81.111C50.4815 82.0782 50.9729 83.4354 50.9729 85.1826V92.7876H47.6969V85.6272C47.6969 84.6132 47.4395 83.841 46.9247 83.3106C46.4099 82.7646 45.7079 82.4916 44.8187 82.4916C43.9295 82.4916 43.2197 82.7646 42.6893 83.3106C42.1745 83.841 41.9171 84.6132 41.9171 85.6272V92.7876H38.6411V85.6272C38.6411 84.6132 38.3837 83.841 37.8689 83.3106C37.3541 82.7646 36.6521 82.4916 35.7629 82.4916C34.8581 82.4916 34.1405 82.7646 33.6101 83.3106C33.0953 83.841 32.8379 84.6132 32.8379 85.6272V92.7876H29.5619V79.824H32.8379V81.3918C33.2591 80.8458 33.7973 80.4168 34.4525 80.1048C35.1233 79.7928 35.8565 79.6368 36.6521 79.6368C37.6661 79.6368 38.5709 79.8552 39.3665 80.292C40.1621 80.7132 40.7783 81.3216 41.2151 82.1172C41.6363 81.3684 42.2447 80.7678 43.0403 80.3154C43.8515 79.863 44.7251 79.6368 45.6611 79.6368ZM57.3577 81.696C57.7789 81.1032 58.3561 80.6118 59.0893 80.2218C59.8381 79.8162 60.6883 79.6134 61.6399 79.6134C62.7475 79.6134 63.7459 79.8864 64.6351 80.4324C65.5399 80.9784 66.2497 81.7584 66.7645 82.7724C67.2949 83.7708 67.5601 84.933 67.5601 86.259C67.5601 87.585 67.2949 88.7628 66.7645 89.7924C66.2497 90.8064 65.5399 91.5942 64.6351 92.1558C63.7459 92.7174 62.7475 92.9982 61.6399 92.9982C60.6883 92.9982 59.8459 92.8032 59.1127 92.4132C58.3951 92.0232 57.8101 91.5318 57.3577 90.939V98.9652H54.0817V79.824H57.3577V81.696ZM64.2139 86.259C64.2139 85.479 64.0501 84.8082 63.7225 84.2466C63.4105 83.6694 62.9893 83.2326 62.4589 82.9362C61.9441 82.6398 61.3825 82.4916 60.7741 82.4916C60.1813 82.4916 59.6197 82.6476 59.0893 82.9596C58.5745 83.256 58.1533 83.6928 57.8257 84.27C57.5137 84.8472 57.3577 85.5258 57.3577 86.3058C57.3577 87.0858 57.5137 87.7644 57.8257 88.3416C58.1533 88.9188 58.5745 89.3634 59.0893 89.6754C59.6197 89.9718 60.1813 90.12 60.7741 90.12C61.3825 90.12 61.9441 89.964 62.4589 89.652C62.9893 89.34 63.4105 88.8954 63.7225 88.3182C64.0501 87.741 64.2139 87.0546 64.2139 86.259ZM75.6971 92.9982C74.4491 92.9982 73.3259 92.7252 72.3275 92.1792C71.3291 91.6176 70.5413 90.8298 69.964 89.8158C69.4024 88.8018 69.1216 87.6318 69.1216 86.3058C69.1216 84.9798 69.4102 83.8098 69.9874 82.7958C70.5803 81.7818 71.3837 81.0018 72.3977 80.4558C73.4117 79.8942 74.5427 79.6134 75.7907 79.6134C77.0387 79.6134 78.1697 79.8942 79.1837 80.4558C80.1977 81.0018 80.9933 81.7818 81.5705 82.7958C82.1633 83.8098 82.4597 84.9798 82.4597 86.3058C82.4597 87.6318 82.1555 88.8018 81.5471 89.8158C80.9543 90.8298 80.1431 91.6176 79.1135 92.1792C78.0995 92.7252 76.9607 92.9982 75.6971 92.9982ZM75.6971 90.1434C76.2899 90.1434 76.8437 90.003 77.3585 89.7222C77.8889 89.4258 78.3101 88.989 78.6221 88.4118C78.9341 87.8346 79.0901 87.1326 79.0901 86.3058C79.0901 85.0734 78.7625 84.1296 78.1073 83.4744C77.4677 82.8036 76.6799 82.4682 75.7439 82.4682C74.8079 82.4682 74.0201 82.8036 73.3805 83.4744C72.7565 84.1296 72.4445 85.0734 72.4445 86.3058C72.4445 87.5382 72.7487 88.4898 73.3571 89.1606C73.9811 89.8158 74.7611 90.1434 75.6971 90.1434Z" fill="#1B4C2E"/>
<path d="M94.9481 76.4544V79.0986H88.1387V83.2872H93.3569V85.8846H88.1387V92.7876H84.8627V76.4544H94.9481ZM100.547 75.4716V92.7876H97.2711V75.4716H100.547ZM109.54 92.9982C108.292 92.9982 107.169 92.7252 106.171 92.1792C105.172 91.6176 104.384 90.8298 103.807 89.8158C103.246 88.8018 102.965 87.6318 102.965 86.3058C102.965 84.9798 103.253 83.8098 103.831 82.7958C104.423 81.7818 105.227 81.0018 106.241 80.4558C107.255 79.8942 108.386 79.6134 109.634 79.6134C110.882 79.6134 112.013 79.8942 113.027 80.4558C114.041 81.0018 114.836 81.7818 115.414 82.7958C116.006 83.8098 116.303 84.9798 116.303 86.3058C116.303 87.6318 115.999 88.8018 115.39 89.8158C114.797 90.8298 113.986 91.6176 112.957 92.1792C111.943 92.7252 110.804 92.9982 109.54 92.9982ZM109.54 90.1434C110.133 90.1434 110.687 90.003 111.202 89.7222C111.732 89.4258 112.153 88.989 112.465 88.4118C112.777 87.8346 112.933 87.1326 112.933 86.3058C112.933 85.0734 112.606 84.1296 111.95 83.4744C111.311 82.8036 110.523 82.4682 109.587 82.4682C108.651 82.4682 107.863 82.8036 107.224 83.4744C106.6 84.1296 106.288 85.0734 106.288 86.3058C106.288 87.5382 106.592 88.4898 107.2 89.1606C107.824 89.8158 108.604 90.1434 109.54 90.1434ZM136.677 79.824L132.886 92.7876H129.353L126.989 83.7318L124.626 92.7876H121.069L117.255 79.824H120.578L122.871 89.6988L125.351 79.824H128.815L131.248 89.6754L133.541 79.824H136.677Z" fill="#F39B2D"/>
<circle cx="68.4937" cy="33.3938" r="33.3938" fill="#F39B2D"/>
<path d="M66.3 6.8252L65.8125 33.6377" stroke="#FFF5E0" stroke-width="4.875" stroke-linecap="round"/>
<path d="M81.6512 47.3691L65.8125 33.6374" stroke="#FFF5E0" stroke-width="4.875" stroke-linecap="round"/>
</svg>
