<svg width="450" height="395" viewBox="0 0 450 395" fill="none" xmlns="http://www.w3.org/2000/svg">
<path d="M90.0001 123.5C90.0001 123.5 63.0851 43.8597 156.965 53.5797C250.845 63.2997 205.99 28.0497 241.465 6.17471C276.94 -15.7003 381.465 52.3547 337.735 117.995C294.005 183.635 407.62 123.59 431.32 222.3C445.945 283.215 409.66 328.05 379.725 353.465" stroke="#CCDDE2" stroke-width="2.735" stroke-miterlimit="10"/>
<path d="M388.88 277.361C381.825 236.506 356.845 199.946 316.26 186.861C305.878 183.532 295.262 180.983 284.5 179.236V179.291C283.939 182.683 282.61 185.901 280.615 188.701C276.385 194.496 270.555 199.256 263.805 201.736C256.915 204.286 248.38 204.616 241.985 200.606C238.135 198.196 234.4 193.951 233.725 189.371C232.955 184.211 235.585 179.326 239.285 175.916C207.925 176.171 178.425 181.331 154.785 187.206C155.605 190.636 156.739 193.984 158.175 197.206C160.185 201.697 163.024 205.769 166.545 209.206C170.937 204.855 174.782 199.986 177.995 194.706C181.069 195.712 183.78 197.6 185.79 200.134C187.8 202.669 189.021 205.738 189.3 208.961V209.126C190.54 220.831 179.27 229.626 169.8 235.036C158.86 241.326 146.665 246.036 134.685 249.951C129.745 251.571 123.325 252.951 118.11 251.261C117.549 251.082 117.001 250.863 116.47 250.606C111.27 248.056 107.79 242.711 105.075 237.826C97.3401 223.951 92.3101 208.826 88.9001 193.301C65.2351 196.326 62.5251 180.301 61.1201 176.371L40.8751 232.966C39.8131 237.034 39.6986 241.292 40.5391 245.411C41.3801 249.531 43.1546 253.403 45.7261 256.729C48.2971 260.056 51.5971 262.748 55.3716 264.6C59.1466 266.452 63.2956 267.414 67.5001 267.411H151.31L189.38 365.061L200.17 392.776H261.8C256.8 392.776 254.065 391.556 252.08 389.566C250.03 387.515 248.876 384.735 248.87 381.836C248.87 375.836 253.795 370.916 261.8 370.916H262.365C261.76 370.916 261.18 370.861 260.575 370.806C260.95 370.765 261.322 370.704 261.69 370.621C261.294 370.612 260.898 370.582 260.505 370.531C264.116 370.105 267.462 368.423 269.958 365.78C272.454 363.137 273.941 359.7 274.16 356.071C274.17 355.883 274.17 355.694 274.16 355.506V355.216C274.074 351.496 272.652 347.93 270.154 345.172C267.656 342.413 264.249 340.645 260.555 340.191C260.975 340.156 261.375 340.121 261.78 340.121C261.415 340.031 261.01 339.976 260.63 339.921C261.23 339.866 261.835 339.826 262.415 339.826L307.505 340.066L315.8 340.101H325.645C326.1 340.101 326.56 340.101 326.995 340.156L341.62 340.231L351.39 340.286C355.474 340.32 359.377 341.97 362.247 344.875C365.117 347.78 366.72 351.703 366.705 355.786C366.7 358.095 366.165 360.372 365.14 362.441C369.332 361.905 373.219 359.966 376.17 356.941C383.205 349.756 386.235 339.001 388.33 329.441C392.035 312.411 391.815 294.466 388.88 277.361ZM274.96 278.511C266.465 291.586 252 290.411 252 290.411C252 290.411 250.8 291.581 248 286.601C245.2 281.621 237.225 278.216 237.225 278.216C236.59 283.216 235.275 290.816 222.225 280.966C209.175 271.116 213.11 256.756 214.225 249.171C215.34 241.586 219.785 239.071 219.785 239.071L225.035 236.301C225.035 236.301 209.85 232.396 209.12 232.251C208.39 232.106 194.865 220.781 208.59 217.791C222.315 214.801 243.71 226.691 247.845 229.041C251.98 231.391 276.145 251.831 276.145 251.831C276.145 251.831 283.5 265.456 274.96 278.511Z" fill="#353642"/>
<path d="M88.8799 193.31C88.8799 193.31 100.325 191.92 104.61 183.75L100.875 204.705C100.875 204.705 146.405 189.205 154.755 187.205C154.755 187.205 157.445 204.55 168.155 209.205L179.205 195.155C179.205 195.155 193.06 198.655 189.27 217.535C185.48 236.415 133.06 252.195 124.17 251.83C115.28 251.465 105.71 245.995 95.9099 216.6L88.8799 193.31Z" fill="#353642"/>
<path d="M107.525 146.631C110.425 151.351 113.34 156.061 116.35 160.711C118.205 163.576 121.585 167.661 117.99 170.656C116.82 171.553 115.407 172.076 113.935 172.156C111.625 172.361 109.2 171.806 107.795 169.821L100.795 158.221C99.3999 155.907 97.1844 154.204 94.5904 153.45C91.9959 152.696 89.2129 152.946 86.7949 154.151" stroke="black" stroke-width="2.735" stroke-miterlimit="10"/>
<path d="M134 161.909C135.83 166.259 134.59 169.064 132.45 170.474C128.95 172.769 124.265 171.669 121.785 168.319L107.55 146.654" stroke="black" stroke-width="2.735" stroke-miterlimit="10"/>
<path d="M119.575 140.331C124.755 146.631 131.29 158.331 134.905 163.216C138.52 168.101 144.11 165.156 144.11 165.156C148.65 162.711 147.88 158.656 145.895 153.731C141.005 141.641 134.025 133.601 126.24 128.331C102.115 112.011 77.3651 124.051 70.0001 152.221L40.8751 232.966C39.8131 237.034 39.6986 241.292 40.5391 245.411C41.3801 249.531 43.1546 253.403 45.7261 256.729C48.2971 260.056 51.5971 262.748 55.3716 264.6C59.1466 266.452 63.2956 267.413 67.5001 267.411H151.31L200.185 392.781" stroke="black" stroke-width="2.735" stroke-miterlimit="10"/>
<path d="M149.5 148.185C155.5 146.105 155.225 136.535 146.71 133.305C137.305 129.735 120.605 124.685 116.41 123.425C116.384 123.405 116.353 123.393 116.32 123.39C116.025 123.3 115.82 123.225 115.66 123.19L115.425 123.115" stroke="black" stroke-width="2.735" stroke-miterlimit="10"/>
<path d="M238.15 243.87C232.9 237.56 218.53 233.985 209.15 232.255C207.574 231.959 206.136 231.158 205.054 229.974C203.972 228.79 203.304 227.287 203.15 225.69C203.041 224.613 203.166 223.525 203.515 222.5C204.074 220.926 205.146 219.586 206.557 218.694C207.969 217.802 209.639 217.41 211.3 217.58C227.3 219.2 243.8 224.235 256.005 235.08C256.005 235.08 315.17 280.23 322.235 284.625C325.15 286.395 327.87 284.305 325.895 281.525L325.275 280.465C321.798 274.497 317.682 268.924 313 263.845" stroke="black" stroke-width="2.735" stroke-miterlimit="10"/>
<path d="M239.245 175.91C164.835 176.53 100.875 204.7 100.875 204.7L107.26 168.91" stroke="black" stroke-width="2.735" stroke-miterlimit="10"/>
<path d="M354.815 370.695C354.815 370.695 346.71 368.86 344.555 375.35C342.4 381.84 340.15 392.165 355.645 392.775C371.14 393.385 362.04 390.34 361.145 385.325C360.25 380.31 354.815 370.695 354.815 370.695Z" fill="#353642"/>
<path d="M231 252.106C231 252.106 222.255 245.476 214.38 252.196C214.049 252.488 213.759 252.824 213.52 253.196" stroke="black" stroke-width="2.735" stroke-miterlimit="10"/>
<g opacity="0.77">
<path opacity="0.77" d="M121.755 168.296C124.255 171.651 128.935 172.746 132.42 170.446C134.535 169.046 135.775 166.256 133.99 161.946C134.315 162.421 134.61 162.841 134.9 163.226C138.51 168.131 144.105 165.176 144.105 165.176C148.645 162.731 147.88 158.676 145.895 153.746C143.953 148.863 141.404 144.243 138.31 139.996C140.335 138.101 142.74 136.186 145.275 137.026C148.01 137.936 148.775 141.366 149.085 144.226C149.23 145.556 149.375 146.871 149.52 148.201L151.71 167.781C152.44 174.281 153.17 180.876 154.755 187.221C155.575 190.651 156.709 193.999 158.145 197.221C160.155 201.712 162.994 205.784 166.515 209.221C170.907 204.87 174.752 200.001 177.965 194.721C181.039 195.727 183.75 197.615 185.76 200.149C187.77 202.684 188.991 205.753 189.27 208.976V209.141C190.51 220.846 179.24 229.641 169.77 235.051C158.83 241.341 146.635 246.051 134.655 249.966C129.715 251.586 123.295 252.966 118.08 251.276C117.519 251.097 116.971 250.878 116.44 250.621C111.24 248.071 107.76 242.726 105.045 237.841C92.045 214.466 86.645 187.626 83.8 161.046C89.49 160.261 95.16 159.386 100.76 158.181C100.76 158.181 100.76 158.221 100.795 158.236L107.25 168.941L107.78 169.831C109.18 171.831 111.605 172.366 113.92 172.166C115.392 172.093 116.806 171.569 117.97 170.666C121.56 167.666 118.19 163.596 116.33 160.731" fill="white"/>
<path opacity="0.77" d="M121.755 168.296C124.255 171.651 128.935 172.746 132.42 170.446C134.535 169.046 135.775 166.256 133.99 161.946C134.315 162.421 134.61 162.841 134.9 163.226C138.51 168.131 144.105 165.176 144.105 165.176C148.645 162.731 147.88 158.676 145.895 153.746C143.953 148.863 141.404 144.243 138.31 139.996C140.335 138.101 142.74 136.186 145.275 137.026C148.01 137.936 148.775 141.366 149.085 144.226C149.23 145.556 149.375 146.871 149.52 148.201L151.71 167.781C152.44 174.281 153.17 180.876 154.755 187.221C155.575 190.651 156.709 193.999 158.145 197.221C160.155 201.712 162.994 205.784 166.515 209.221C170.907 204.87 174.752 200.001 177.965 194.721C181.039 195.727 183.75 197.615 185.76 200.149C187.77 202.684 188.991 205.753 189.27 208.976V209.141C190.51 220.846 179.24 229.641 169.77 235.051C158.83 241.341 146.635 246.051 134.655 249.966C129.715 251.586 123.295 252.966 118.08 251.276C117.519 251.097 116.971 250.878 116.44 250.621C111.24 248.071 107.76 242.726 105.045 237.841C92.045 214.466 86.645 187.626 83.8 161.046C89.49 160.261 95.16 159.386 100.76 158.181C100.76 158.181 100.76 158.221 100.795 158.236L107.25 168.941L107.78 169.831C109.18 171.831 111.605 172.366 113.92 172.166C115.392 172.093 116.806 171.569 117.97 170.666C121.56 167.666 118.19 163.596 116.33 160.731" fill="#F39B2D"/>
<path opacity="0.77" d="M123.29 169.88C125.505 172.88 129.29 172.5 132.42 170.445C134.31 169.195 135.86 169.56 134.265 165.705C134.56 166.125 134.6 164.705 134.86 165.02C138.085 169.4 134.9 163.21 134.9 163.21C139.4 168.895 149.195 163.54 147.4 159.145C145.5 154.41 143.5 147.41 140.965 143.91C142.965 142.02 142.58 142.3 145.125 143.805C145.808 144.244 146.381 144.837 146.796 145.535C147.212 146.234 147.46 147.019 147.52 147.83C147.725 149.735 147.93 151.56 148.135 153.42L150.085 170.92C150.74 176.735 151.39 182.61 152.805 188.27C153.536 191.331 154.551 194.317 155.835 197.19C157.625 201.145 163.375 207.73 166.515 210.745C170.42 206.87 175.1 199.745 177.965 195.01C183.465 196.7 183.225 201.96 183.615 207.705V207.855C184.725 218.3 174.665 226.145 166.235 230.98C156.465 236.595 145.58 240.795 134.885 244.295C130.475 245.745 124.745 246.995 120.09 245.465C119.588 245.307 119.098 245.111 118.625 244.88C113.985 242.6 110.875 237.835 108.45 233.47C97.835 214.405 92.91 192.76 90.2 171.06C90.001 169.436 90.4405 167.799 91.4255 166.493C92.4105 165.187 93.864 164.315 95.48 164.06C98.525 163.56 101.56 163.06 104.575 162.39L104.66 162.43L110.42 171.985C111.675 173.76 111.88 172.37 113.945 172.19C115.25 172.075 117.78 171.82 118.79 170.975C121.995 168.305 120.185 167.2 118.525 164.645" fill="#F39B2D"/>
</g>
<path d="M229.945 261.756C229.945 261.756 213.34 256.296 213.09 265.476" stroke="black" stroke-width="2.735" stroke-miterlimit="10"/>
<path opacity="0.54" d="M81.3099 355.269L48.7449 271.839C48.3414 270.224 48.3114 268.539 48.6564 266.911C49.0019 265.284 49.7139 263.756 50.7379 262.444C51.7624 261.133 53.0719 260.072 54.5679 259.342C56.0634 258.613 57.7059 258.234 59.3699 258.234H188.72C191.624 258.233 194.444 259.211 196.726 261.009C199.007 262.806 200.616 265.32 201.295 268.144L236.945 351.554C237.33 353.163 237.346 354.838 236.991 356.454C236.635 358.07 235.919 359.585 234.894 360.884C233.87 362.183 232.564 363.233 231.076 363.956C229.587 364.678 227.954 365.053 226.3 365.054H93.8549C90.9719 365.056 88.1714 364.093 85.8984 362.32C83.6254 360.547 82.0104 358.065 81.3099 355.269Z" fill="white"/>
<path d="M235.35 275.829C235.35 275.829 238.045 278.299 237.02 281.829C236.26 284.444 233.66 286.094 231.085 285.199C222.885 282.364 215.5 277.549 213.7 269.364C212.85 265.22 212.666 260.967 213.155 256.764C213.55 252.869 214.125 248.664 215.435 244.959C217.435 239.269 223.56 235.304 229.505 238.044" stroke="black" stroke-width="2.735" stroke-miterlimit="10"/>
<path d="M81.3099 355.269L48.7449 271.839C48.3414 270.224 48.3114 268.539 48.6564 266.911C49.0019 265.284 49.7139 263.756 50.7379 262.444C51.7624 261.133 53.0719 260.072 54.5679 259.342C56.0634 258.613 57.7059 258.234 59.3699 258.234H188.72C191.624 258.233 194.444 259.211 196.726 261.009C199.007 262.806 200.616 265.32 201.295 268.144L236.945 351.554C237.33 353.163 237.346 354.838 236.991 356.454C236.635 358.07 235.919 359.585 234.894 360.884C233.87 362.183 232.564 363.233 231.076 363.956C229.587 364.678 227.954 365.053 226.3 365.054H93.8549C90.9719 365.056 88.1714 364.093 85.8984 362.32C83.6254 360.547 82.0104 358.065 81.3099 355.269Z" fill="#F39B2D"/>
<path d="M81.3099 355.269L48.7449 271.839C48.3414 270.224 48.3114 268.539 48.6564 266.911C49.0019 265.284 49.7139 263.756 50.7379 262.444C51.7624 261.133 53.0719 260.072 54.5679 259.342C56.0634 258.613 57.7059 258.234 59.3699 258.234H188.72C191.624 258.233 194.444 259.211 196.726 261.009C199.007 262.806 200.616 265.32 201.295 268.144L236.945 351.554C237.33 353.163 237.346 354.838 236.991 356.454C236.635 358.07 235.919 359.585 234.894 360.884C233.87 362.183 232.564 363.233 231.076 363.956C229.587 364.678 227.954 365.053 226.3 365.054H93.8549C90.9719 365.056 88.1714 364.093 85.8984 362.32C83.6254 360.547 82.0104 358.065 81.3099 355.269Z" stroke="black" stroke-width="2.735" stroke-linecap="square" stroke-linejoin="round"/>
<path d="M86.075 351.909L56.03 274.909C55.6585 273.419 55.6315 271.865 55.9505 270.363C56.2695 268.862 56.9265 267.452 57.872 266.243C58.817 265.033 60.0255 264.055 61.405 263.382C62.785 262.709 64.3 262.359 65.835 262.359H185.165C187.844 262.358 190.445 263.259 192.55 264.917C194.654 266.575 196.139 268.894 196.765 271.499L229.66 348.454C230.015 349.939 230.029 351.485 229.701 352.976C229.373 354.467 228.711 355.864 227.765 357.062C226.82 358.261 225.615 359.23 224.242 359.896C222.868 360.562 221.361 360.909 219.835 360.909H97.645C94.9895 360.911 92.4095 360.027 90.314 358.397C88.218 356.766 86.7265 354.483 86.075 351.909Z" fill="#F39B2D"/>
<path d="M341.46 339.83L364.34 392.775" stroke="black" stroke-width="2.735" stroke-miterlimit="10"/>
<path d="M450 392.775H0" stroke="black" stroke-width="2.735" stroke-miterlimit="10"/>
<path d="M237.185 153.814C233.475 157.479 227.935 157.474 224.78 154.084" stroke="black" stroke-width="2.735" stroke-miterlimit="10"/>
<path d="M138.31 139.98C140.335 138.085 142.74 136.17 145.275 137.01C148.01 137.92 148.775 141.35 149.085 144.21C149.962 152.07 150.837 159.922 151.71 167.765C152.82 177.765 153.99 188.005 158.145 197.195C160.155 201.686 162.994 205.758 166.515 209.195" stroke="black" stroke-width="2.735" stroke-miterlimit="10"/>
<path d="M189.27 209.135V208.97C188.99 205.747 187.769 202.678 185.76 200.143C183.75 197.609 181.039 195.721 177.965 194.715C174.751 199.995 170.906 204.865 166.515 209.215C155.001 220.663 140.211 228.245 124.195 230.91C124.965 233.975 126.55 236.765 127.645 239.715C128.74 242.665 129.285 246.08 127.955 248.925C126.275 252.555 121.455 252.08 118.105 251.275C118.07 251.275 118.05 251.275 118.015 251.275" stroke="black" stroke-width="2.735" stroke-miterlimit="10"/>
<path d="M100.77 158.176C95.1701 159.381 89.5001 160.256 83.8101 161.041C86.6551 187.621 92.0351 214.461 105.055 237.836C107.77 242.721 111.25 248.066 116.45 250.616C116.981 250.873 117.529 251.092 118.09 251.271C123.305 252.986 129.725 251.581 134.665 249.961C146.665 246.041 158.84 241.336 169.78 235.046C179.225 229.631 190.495 220.841 189.28 209.136C189.163 207.847 188.899 206.575 188.495 205.346" stroke="black" stroke-width="2.735" stroke-miterlimit="10"/>
<path d="M194.41 105.154C195.249 108.653 197.164 111.8 199.887 114.152C202.609 116.505 206.001 117.943 209.585 118.264C209.882 116.821 210.528 115.472 211.465 114.335C215.465 109.62 217.17 118.465 229.965 112.115C247.695 103.295 254.425 108.355 254.425 108.355C255.015 108.795 254.925 112.854 255.025 113.594C255.525 117.809 255.975 122.004 256.47 126.214C256.77 128.784 257.065 131.335 257.345 133.885C257.586 133.451 257.853 133.031 258.145 132.629C259.76 126.914 262.645 120.165 268.865 123.07C270.124 123.684 271.221 124.586 272.065 125.704C276.19 131.124 273.065 136.359 268.75 140.234C267.668 141.437 266.459 142.518 265.145 143.46C265.855 144.93 268.755 150.765 268.755 150.785C269.055 151.375 279.19 139.904 279.945 138.654C281.073 135.592 281.678 132.362 281.735 129.1C281.9 115.685 276.44 100.069 265.575 92.3742C262.88 90.4692 263.74 88.6342 263.575 86.0442C263.563 85.9042 263.51 85.7712 263.421 85.6622C263.332 85.5532 263.212 85.4737 263.078 85.4342C262.943 85.3947 262.799 85.3972 262.666 85.4407C262.532 85.4847 262.415 85.5677 262.33 85.6797C258.925 89.5997 250.495 89.2097 250.495 89.2097C221.235 81.8797 211.4 94.8897 205.495 97.2097C203.085 98.1222 200.433 98.1662 197.995 97.3347C197.851 98.1417 197.49 98.8942 196.95 99.5112C196.409 100.128 195.711 100.586 194.93 100.835L195.08 102.189C195.207 103.226 194.97 104.274 194.41 105.154Z" fill="#F39B2D"/>
<path d="M209.605 118.286C206.022 117.964 202.63 116.526 199.907 114.174C197.185 111.822 195.269 108.675 194.43 105.176C194.102 103.834 193.894 102.465 193.81 101.086L194.04 101.061C194.355 101.038 194.664 100.97 194.96 100.861C195.742 100.612 196.44 100.155 196.98 99.5375C197.52 98.921 197.882 98.168 198.025 97.361C198.117 96.9135 198.135 96.454 198.08 96.001L197.33 89.381C197.33 89.381 202.62 93.316 208.49 91.016C214.36 88.716 224.215 75.706 253.49 83.016C253.49 83.016 260.1 83.406 263.49 79.486C263.576 79.374 263.693 79.291 263.826 79.2475C263.96 79.2035 264.103 79.2015 264.238 79.241C264.373 79.2805 264.493 79.36 264.581 79.4685C264.67 79.5775 264.724 79.711 264.735 79.851C264.91 82.446 265.87 84.281 268.57 86.181C279.435 93.881 284.895 109.491 284.725 122.906C284.675 128.471 282.825 133.966 279.97 138.681C279.215 139.931 269.08 151.401 268.78 150.811C268.78 150.811 265.88 144.956 265.17 143.486L265 143.161L265.325 142.946C266.532 142.127 267.685 141.23 268.775 140.261C273.085 136.386 276.215 131.151 272.09 125.731C271.246 124.613 270.15 123.71 268.89 123.096C262.65 120.191 259.785 126.941 258.17 132.656C257.857 133.748 257.664 134.872 257.595 136.006C257.52 135.306 257.445 134.631 257.37 133.931C257.09 131.381 256.795 128.831 256.495 126.261C255.995 122.051 255.525 117.856 255.05 113.641C254.975 112.921 255.05 108.841 254.45 108.401C254.45 108.401 247.715 103.341 229.99 112.161C217.195 118.511 215.49 109.661 211.49 114.381C210.553 115.519 209.908 116.868 209.61 118.311C209.519 118.775 209.46 119.244 209.435 119.716C209.426 119.777 209.426 119.84 209.435 119.901C209.375 120.936 209.355 121.966 209.33 122.976C209.235 132.721 210.305 142.901 214.13 151.951C218.78 162.921 231.085 173.741 243.88 168.626C247.88 167.021 251.465 164.436 254.745 161.691" stroke="black" stroke-width="2.735" stroke-miterlimit="10"/>
<path d="M218.361 142.053C219.634 141.627 220.248 140.034 219.733 138.494C219.218 136.954 217.768 136.051 216.495 136.477C215.223 136.903 214.609 138.496 215.124 140.036C215.639 141.576 217.089 142.479 218.361 142.053Z" fill="black"/>
<path d="M237.399 141.444C238.671 141.018 239.285 139.425 238.77 137.885C238.255 136.345 236.806 135.442 235.533 135.868C234.26 136.294 233.646 137.887 234.161 139.427C234.676 140.967 236.126 141.87 237.399 141.444Z" fill="black"/>
<path d="M230.12 144.741C230.12 144.741 223.785 148.336 223.4 144.606C223.28 143.456 221.73 132.191 221.73 132.191C221.73 132.191 216.61 126.766 208.765 130.776" stroke="black" stroke-width="2.735" stroke-miterlimit="10"/>
<path d="M228.695 129.035C228.695 129.035 238.925 123.925 245.695 131.29" stroke="black" stroke-width="2.735" stroke-miterlimit="10"/>
<path d="M238.075 169.881L239.25 175.911C235.545 179.326 232.925 184.221 233.69 189.376C234.37 193.946 238.11 198.201 241.945 200.596C248.355 204.596 256.88 204.281 263.78 201.736C270.525 199.236 276.36 194.491 280.59 188.701C282.582 185.902 283.909 182.685 284.47 179.296V179.236" stroke="black" stroke-width="2.735" stroke-miterlimit="10"/>
<path d="M239.25 175.91L241.54 186.8" stroke="black" stroke-width="2.735" stroke-miterlimit="10"/>
<path d="M271.635 148.186L275.095 171.161C275.436 173.41 276.573 175.462 278.299 176.943C280.025 178.425 282.225 179.239 284.5 179.236C295.269 180.981 305.891 183.528 316.28 186.856C356.865 199.946 381.845 236.506 388.9 277.356C391.835 294.461 392.055 312.401 388.37 329.411C386.275 338.986 383.245 349.741 376.21 356.911C367.075 366.261 353.055 362.411 342.26 358.186C308.745 345.151 280.87 321.961 256.8 295.411C243.93 281.211 227.3 269.831 227.3 269.831" stroke="black" stroke-width="2.735" stroke-miterlimit="10"/>
<path d="M97.1499 334.676C93.3899 334.641 90.1149 331.606 89.2699 327.381C87.5999 319.071 87.1599 306.221 99.3449 303.416C114.57 299.916 126.28 316.496 132.02 326.976C133.95 330.476 131.765 334.976 128.17 334.976L97.1499 334.676Z" fill="#D7E8F0"/>
<path d="M102.177 296.36C105.409 294.209 105.459 288.602 102.287 283.836C99.116 279.07 93.925 276.95 90.6925 279.101C87.46 281.252 87.4105 286.859 90.5815 291.625C93.753 296.391 98.944 298.511 102.177 296.36Z" fill="#D7E8F0"/>
<path d="M352.385 370.969C352.15 371.004 351.885 371.039 351.655 371.094H351.565L316 370.909L262.635 370.634C262.43 370.634 262.23 370.634 262.03 370.634C261.633 370.625 261.238 370.595 260.845 370.544C264.46 370.124 267.812 368.442 270.31 365.795C272.807 363.147 274.291 359.703 274.5 356.069C274.51 355.881 274.51 355.693 274.5 355.504V355.214C274.485 351.659 273.246 348.217 270.991 345.467C268.737 342.718 265.604 340.829 262.12 340.119C261.755 340.029 261.355 339.974 260.97 339.919C261.575 339.864 262.175 339.824 262.76 339.824L307.845 340.064L316.145 340.099L327.34 340.154C331.173 340.504 334.738 342.271 337.337 345.11C339.936 347.949 341.383 351.655 341.395 355.504C341.395 356.231 341.34 356.956 341.23 357.674C340.697 361.339 338.866 364.69 336.071 367.119C333.276 369.548 329.703 370.893 326 370.909H353.09C351.53 370.909 351.965 370.909 352.385 370.969Z" fill="white"/>
<path d="M280.245 389.566C281.261 390.588 282.47 391.398 283.801 391.949C285.132 392.5 286.559 392.781 288 392.776H261.81C256.81 392.776 254.08 391.556 252.09 389.566C250.045 387.512 248.894 384.734 248.885 381.836C248.885 375.836 253.805 370.916 261.81 370.916H288C285.838 370.913 283.723 371.551 281.924 372.751C280.125 373.951 278.723 375.657 277.896 377.655C277.068 379.652 276.851 381.851 277.274 383.971C277.696 386.092 278.739 388.039 280.27 389.566H280.245Z" fill="#D7E8F0"/>
<path d="M366.74 355.779C366.733 358.089 366.196 360.366 365.17 362.434C364.437 363.998 363.431 365.419 362.2 366.629C360.169 368.641 357.619 370.049 354.835 370.694C353.687 370.959 352.513 371.094 351.335 371.094C351.575 371.039 351.835 371.004 352.065 370.969C351.645 370.929 351.21 370.914 352.775 370.914H325.68C329.385 370.9 332.962 369.555 335.759 367.125C338.556 364.695 340.388 361.341 340.92 357.674C341.03 356.956 341.085 356.231 341.085 355.504C341.073 351.655 339.626 347.948 337.025 345.109C334.425 342.27 330.859 340.503 327.025 340.154L341.65 340.229L351.42 340.284C355.503 340.319 359.406 341.968 362.276 344.871C365.147 347.775 366.752 351.696 366.74 355.779Z" fill="#F39B2D"/>
<path d="M366.74 355.775C366.709 359.861 365.062 363.767 362.156 366.64C359.251 369.512 355.325 371.116 351.24 371.1L262.28 370.64C261.685 370.64 261.09 370.595 260.49 370.535C264.24 370.11 267.704 368.325 270.225 365.516C272.746 362.708 274.149 359.073 274.169 355.299C274.189 351.525 272.824 347.875 270.332 345.041C267.84 342.206 264.395 340.384 260.65 339.92C261.244 339.858 261.842 339.828 262.44 339.83L351.4 340.29C355.485 340.318 359.392 341.963 362.267 344.865C365.142 347.767 366.75 351.69 366.74 355.775Z" stroke="black" stroke-width="2.735" stroke-linecap="square" stroke-linejoin="round"/>
<path d="M341.075 355.5C341.067 359.584 339.441 363.499 336.553 366.387C333.665 369.276 329.75 370.902 325.665 370.91H262.37C261.772 370.906 261.175 370.873 260.58 370.81C264.327 370.365 267.781 368.561 270.288 365.74C272.794 362.918 274.178 359.276 274.178 355.502C274.178 351.729 272.794 348.086 270.288 345.265C267.781 342.444 264.327 340.64 260.58 340.195C261.175 340.14 261.775 340.1 262.37 340.1H325.665C329.748 340.109 333.66 341.734 336.548 344.62C339.436 347.506 341.063 351.417 341.075 355.5Z" stroke="black" stroke-width="2.735" stroke-linecap="square" stroke-linejoin="round"/>
<path d="M248.885 381.839C248.885 383.273 249.167 384.693 249.716 386.018C250.266 387.343 251.07 388.546 252.085 389.559C254.085 391.559 256.8 392.774 261.805 392.774H352.77C351.205 392.774 351.63 392.744 352.055 392.704C349.393 392.391 346.94 391.112 345.159 389.109C343.378 387.106 342.394 384.519 342.394 381.839C342.394 379.159 343.378 376.573 345.159 374.57C346.94 372.567 349.393 371.288 352.055 370.974C351.63 370.934 351.205 370.904 352.77 370.904H261.805C253.795 370.909 248.885 375.829 248.885 381.839Z" stroke="black" stroke-width="2.735" stroke-linecap="square" stroke-linejoin="round"/>
<path d="M277.035 381.839C277.042 384.738 278.196 387.515 280.245 389.564C282.295 391.614 285.072 392.768 287.97 392.774H350.785C351.205 392.774 351.63 392.744 352.055 392.704C349.394 392.391 346.94 391.112 345.159 389.109C343.378 387.106 342.394 384.519 342.394 381.839C342.394 379.159 343.378 376.573 345.159 374.57C346.94 372.567 349.394 371.288 352.055 370.974C351.63 370.934 351.205 370.904 350.785 370.904H287.97C285.073 370.912 282.296 372.067 280.247 374.116C278.198 376.165 277.043 378.942 277.035 381.839Z" stroke="black" stroke-width="2.735" stroke-linecap="square" stroke-linejoin="round"/>
<path d="M175.21 298.41H147.15C145.866 298.408 144.61 298.032 143.536 297.329C142.462 296.626 141.616 295.626 141.1 294.45C140.901 294.012 140.815 293.531 140.852 293.052C140.889 292.572 141.046 292.11 141.31 291.708C141.573 291.306 141.934 290.977 142.359 290.751C142.784 290.526 143.259 290.412 143.74 290.42H173.57C172.165 292.785 172.88 296.07 175.21 298.41Z" fill="#D7E8F0"/>
<path d="M193.355 295.519C193.353 296.284 193.049 297.017 192.508 297.558C191.968 298.099 191.235 298.403 190.47 298.404H175.21C172.88 296.069 172.165 292.784 173.57 290.404H187.045C188.327 290.405 189.582 290.777 190.657 291.476C191.731 292.176 192.58 293.172 193.1 294.344C193.261 294.716 193.348 295.115 193.355 295.519Z" fill="#F39B2D"/>
<path d="M186.335 298.41C186.256 298.562 186.164 298.708 186.06 298.845C184.06 301.58 179.715 301.845 176.34 299.375C175.941 299.08 175.563 298.758 175.21 298.41C172.88 296.075 172.165 292.79 173.57 290.41C173.649 290.257 173.741 290.112 173.845 289.975C175.845 287.22 180.17 286.975 183.545 289.425C183.951 289.729 184.334 290.063 184.69 290.425C187 292.75 187.72 296.015 186.335 298.41Z" fill="white"/>
<path d="M200.41 313.136C200.404 313.901 200.097 314.634 199.553 315.173C199.01 315.713 198.275 316.016 197.51 316.016H168.065C169.485 313.626 168.775 310.366 166.44 308.016H194.1C195.384 308.016 196.64 308.39 197.716 309.092C198.791 309.795 199.638 310.795 200.155 311.971C200.32 312.337 200.406 312.734 200.41 313.136Z" fill="#F39B2D"/>
<path d="M168.065 316.014H154.21C152.927 316.015 151.672 315.643 150.597 314.944C149.522 314.244 148.673 313.247 148.155 312.074C147.991 311.707 147.905 311.311 147.9 310.909C147.899 310.531 147.973 310.156 148.118 309.806C148.262 309.457 148.474 309.139 148.742 308.871C149.009 308.604 149.327 308.392 149.677 308.247C150.027 308.103 150.401 308.029 150.78 308.029H166.44C168.775 310.364 169.5 313.624 168.065 316.014Z" fill="#D7E8F0"/>
<path d="M168.065 316.014C168 316.171 167.914 316.319 167.81 316.454C165.81 319.204 161.48 319.454 158.11 316.999C157.702 316.695 157.318 316.361 156.96 315.999C154.645 313.664 153.935 310.404 155.32 307.999C155.4 307.845 155.492 307.698 155.595 307.559C157.595 304.824 161.94 304.559 165.31 307.034C165.712 307.326 166.089 307.648 166.44 307.999C168.775 310.364 169.5 313.624 168.065 316.014Z" fill="white"/>
<path d="M177.875 333.501H160.245C158.963 333.499 157.709 333.126 156.635 332.427C155.56 331.728 154.711 330.732 154.19 329.561C153.992 329.122 153.907 328.64 153.944 328.16C153.982 327.679 154.139 327.216 154.403 326.813C154.667 326.41 155.028 326.079 155.453 325.853C155.878 325.626 156.353 325.51 156.835 325.516H176.235C174.845 327.911 175.56 331.166 177.875 333.501Z" fill="#F39B2D"/>
<path d="M206.445 330.64C206.441 331.401 206.136 332.129 205.596 332.665C205.056 333.201 204.326 333.501 203.565 333.5H177.875C175.56 331.165 174.845 327.905 176.235 325.5H200.135C201.419 325.5 202.676 325.875 203.751 326.577C204.826 327.279 205.674 328.279 206.19 329.455C206.355 329.829 206.442 330.232 206.445 330.64Z" fill="#D7E8F0"/>
<path d="M189 333.501C188.92 333.654 188.828 333.801 188.725 333.941C186.725 336.691 182.4 336.941 179.025 334.486C178.619 334.18 178.237 333.846 177.88 333.486C175.565 331.151 174.85 327.891 176.24 325.486C176.316 325.331 176.406 325.184 176.51 325.046C178.51 322.311 182.855 322.076 186.23 324.521C186.631 324.812 187.009 325.135 187.36 325.486C189.69 327.851 190.4 331.131 189 333.501Z" fill="white"/>
<path d="M55.8049 174.096L56.2449 174.221L56.0799 174.861C55.9754 174.611 55.8834 174.355 55.8049 174.096Z" fill="#353642"/>
<path d="M134.053 214.098C140.635 212.166 144.093 204.205 141.778 196.317C139.462 188.429 132.25 183.601 125.668 185.533C119.086 187.465 115.628 195.426 117.944 203.314C120.259 211.202 127.472 216.03 134.053 214.098Z" fill="#D7E8F0"/>
</svg>
